<svg width="106" height="23" viewBox="0 0 106 23" fill="none" xmlns="http://www.w3.org/2000/svg">
<path d="M13.996 22V13.289H5.595V22H0.325V0.237999H5.595V8.639H13.996V0.237999H19.266V22H13.996ZM30.79 17.939C32.03 17.939 33.177 17.381 33.487 15.893H39.067C38.168 19.954 35.099 22.31 30.759 22.31C25.892 22.31 22.048 18.497 22.048 13.32C22.048 8.174 25.892 4.423 30.852 4.423C35.533 4.423 39.315 7.523 39.315 13.134C39.315 13.661 39.284 14.219 39.191 14.808H27.473C27.876 16.73 29.147 17.939 30.79 17.939ZM30.79 8.794C29.24 8.794 28.031 9.848 27.535 11.584H33.921C33.611 9.755 32.185 8.794 30.79 8.794ZM46.2886 13.382C46.2886 16.017 47.7456 17.784 49.8846 17.784C52.0546 17.784 53.5116 16.017 53.5116 13.382C53.5116 10.716 52.0546 8.949 49.8536 8.949C47.7146 8.949 46.2886 10.716 46.2886 13.382ZM53.3876 6.81V4.733H58.6576V22H53.3876V19.768C52.3026 21.411 50.6906 22.31 48.6136 22.31C44.2116 22.31 40.8636 18.559 40.8636 13.413C40.8636 8.236 44.2116 4.423 48.6756 4.423C50.7526 4.423 52.3336 5.229 53.3876 6.81ZM61.2836 13.32C61.2836 8.174 65.1276 4.423 70.0876 4.423C74.3036 4.423 77.6206 6.965 78.3026 11.181H72.5676C72.1336 9.755 71.3276 8.949 69.9016 8.949C68.1036 8.949 66.7086 10.716 66.7086 13.351C66.7086 16.017 68.1656 17.784 69.9636 17.784C71.2346 17.784 72.2576 17.009 72.5676 15.552H78.3026C77.4036 20.016 74.3346 22.31 69.9946 22.31C65.1276 22.31 61.2836 18.497 61.2836 13.32ZM85.1306 13.382C85.1306 16.017 86.5876 17.784 88.7266 17.784C90.8966 17.784 92.3536 16.017 92.3536 13.382C92.3536 10.716 90.8966 8.949 88.6956 8.949C86.5566 8.949 85.1306 10.716 85.1306 13.382ZM92.2296 6.81V4.733H97.4996V22H92.2296V19.768C91.1446 21.411 89.5326 22.31 87.4556 22.31C83.0536 22.31 79.7056 18.559 79.7056 13.413C79.7056 8.236 83.0536 4.423 87.5176 4.423C89.5946 4.423 91.1756 5.229 92.2296 6.81Z" fill="#2C3A42"/>
<path d="M103.009 22.31C101.397 22.31 100.126 21.039 100.126 19.427C100.126 17.784 101.397 16.513 103.009 16.513C104.652 16.513 105.923 17.784 105.923 19.427C105.923 21.039 104.652 22.31 103.009 22.31Z" fill="#F39292" fill-opacity="0.8"/>
</svg>
