<svg width="295" height="107" viewBox="0 0 295 107" fill="none" xmlns="http://www.w3.org/2000/svg">
<path d="M148.996 50V41.289H140.595V50H135.325V28.238H140.595V36.639H148.996V28.238H154.266V50H148.996ZM165.79 45.939C167.03 45.939 168.177 45.381 168.487 43.893H174.067C173.168 47.954 170.099 50.31 165.759 50.31C160.892 50.31 157.048 46.497 157.048 41.32C157.048 36.174 160.892 32.423 165.852 32.423C170.533 32.423 174.315 35.523 174.315 41.134C174.315 41.661 174.284 42.219 174.191 42.808H162.473C162.876 44.73 164.147 45.939 165.79 45.939ZM165.79 36.794C164.24 36.794 163.031 37.848 162.535 39.584H168.921C168.611 37.755 167.185 36.794 165.79 36.794ZM181.289 41.382C181.289 44.017 182.746 45.784 184.885 45.784C187.055 45.784 188.512 44.017 188.512 41.382C188.512 38.716 187.055 36.949 184.854 36.949C182.715 36.949 181.289 38.716 181.289 41.382ZM188.388 34.81V32.733H193.658V50H188.388V47.768C187.303 49.411 185.691 50.31 183.614 50.31C179.212 50.31 175.864 46.559 175.864 41.413C175.864 36.236 179.212 32.423 183.676 32.423C185.753 32.423 187.334 33.229 188.388 34.81ZM196.284 41.32C196.284 36.174 200.128 32.423 205.088 32.423C209.304 32.423 212.621 34.965 213.303 39.181H207.568C207.134 37.755 206.328 36.949 204.902 36.949C203.104 36.949 201.709 38.716 201.709 41.351C201.709 44.017 203.166 45.784 204.964 45.784C206.235 45.784 207.258 45.009 207.568 43.552H213.303C212.404 48.016 209.335 50.31 204.995 50.31C200.128 50.31 196.284 46.497 196.284 41.32ZM220.131 41.382C220.131 44.017 221.588 45.784 223.727 45.784C225.897 45.784 227.354 44.017 227.354 41.382C227.354 38.716 225.897 36.949 223.696 36.949C221.557 36.949 220.131 38.716 220.131 41.382ZM227.23 34.81V32.733H232.5V50H227.23V47.768C226.145 49.411 224.533 50.31 222.456 50.31C218.054 50.31 214.706 46.559 214.706 41.413C214.706 36.236 218.054 32.423 222.518 32.423C224.595 32.423 226.176 33.229 227.23 34.81ZM238.009 50.31C236.397 50.31 235.126 49.039 235.126 47.427C235.126 45.784 236.397 44.513 238.009 44.513C239.652 44.513 240.923 45.784 240.923 47.427C240.923 49.039 239.652 50.31 238.009 50.31ZM247.287 41.382C247.287 44.017 248.744 45.784 250.883 45.784C253.053 45.784 254.51 44.017 254.51 41.382C254.51 38.716 253.053 36.949 250.852 36.949C248.713 36.949 247.287 38.716 247.287 41.382ZM254.386 34.81V26.347H259.656V50H254.386V47.768C253.301 49.411 251.689 50.31 249.612 50.31C245.21 50.31 241.862 46.559 241.862 41.413C241.862 36.236 245.21 32.423 249.674 32.423C251.751 32.423 253.332 33.229 254.386 34.81ZM263.367 50V26.347H268.637V50H263.367ZM268.761 41.227L273.969 32.733H280.014L274.496 40.917L280.231 50H274.093L268.761 41.227Z" fill="#2C3A42"/>
<path d="M143.384 69V63.73H137.502V69H135.564V57.066H137.502V62.047H143.384V57.066H145.322V69H143.384ZM152 67.521C153.156 67.521 154.125 66.943 154.363 65.753H156.403C155.944 67.81 154.312 69.17 152 69.17C149.314 69.17 147.325 67.147 147.325 64.257C147.325 61.35 149.314 59.361 152.102 59.361C154.686 59.361 156.522 61.214 156.522 63.951C156.522 64.206 156.488 64.461 156.454 64.767H149.314C149.484 66.501 150.555 67.521 152 67.521ZM152 61.01C150.623 61.01 149.62 61.894 149.365 63.458H154.533C154.465 61.945 153.343 61.01 152 61.01ZM159.716 64.257C159.716 66.11 160.702 67.504 162.504 67.504C164.306 67.504 165.343 66.059 165.343 64.257C165.343 62.489 164.306 61.01 162.504 61.027C160.702 61.027 159.716 62.438 159.716 64.257ZM165.326 61.078V59.531H167.264V69H165.326V67.419C164.663 68.541 163.558 69.17 162.181 69.17C159.478 69.17 157.693 67.198 157.693 64.274C157.693 61.35 159.444 59.361 162.198 59.361C163.575 59.361 164.68 59.973 165.326 61.078ZM169.685 69V56.029H171.64V69H169.685ZM174.315 66.569V61.095H173.125V59.531H174.315V57.202H176.253V59.531H178.582V61.095H176.253V66.331C176.253 67.13 176.542 67.47 177.341 67.47C177.749 67.47 178.225 67.368 178.599 67.164V68.796C178.106 69.051 177.545 69.17 176.899 69.17C175.199 69.17 174.315 68.303 174.315 66.569ZM180.178 69V56.029H182.116V60.976C182.694 59.922 183.748 59.361 184.989 59.361C186.927 59.361 188.508 60.738 188.508 63.356V69H186.57V63.662C186.57 61.945 185.703 61.044 184.343 61.044C183 61.044 182.116 61.945 182.116 63.662V69H180.178ZM190.333 64.308C190.333 61.452 192.22 59.361 195.042 59.361C197.252 59.361 198.935 60.687 199.275 62.914H197.184C196.963 61.741 196.13 61.061 194.974 61.061C193.427 61.061 192.356 62.268 192.356 64.308C192.356 66.365 193.427 67.47 194.94 67.47C196.011 67.47 196.98 66.756 197.184 65.617H199.275C198.816 67.725 197.201 69.17 194.906 69.17C192.22 69.17 190.333 67.181 190.333 64.308ZM202.392 64.257C202.392 66.11 203.378 67.504 205.18 67.504C206.982 67.504 208.019 66.059 208.019 64.257C208.019 62.489 206.982 61.01 205.18 61.027C203.378 61.027 202.392 62.438 202.392 64.257ZM208.002 61.078V59.531H209.94V69H208.002V67.419C207.339 68.541 206.234 69.17 204.857 69.17C202.154 69.17 200.369 67.198 200.369 64.274C200.369 61.35 202.12 59.361 204.874 59.361C206.251 59.361 207.356 59.973 208.002 61.078ZM214.299 63.968V69H212.361V59.531H214.299V60.959C214.775 59.973 215.523 59.361 216.509 59.361C216.883 59.361 217.155 59.463 217.274 59.599V61.673C217.07 61.52 216.747 61.384 216.271 61.384C215.166 61.384 214.299 62.047 214.299 63.968ZM222.642 67.521C223.798 67.521 224.767 66.943 225.005 65.753H227.045C226.586 67.81 224.954 69.17 222.642 69.17C219.956 69.17 217.967 67.147 217.967 64.257C217.967 61.35 219.956 59.361 222.744 59.361C225.328 59.361 227.164 61.214 227.164 63.951C227.164 64.206 227.13 64.461 227.096 64.767H219.956C220.126 66.501 221.197 67.521 222.642 67.521ZM222.642 61.01C221.265 61.01 220.262 61.894 220.007 63.458H225.175C225.107 61.945 223.985 61.01 222.642 61.01ZM239.857 64.274C239.857 62.421 238.871 61.027 237.069 61.027C235.284 61.027 234.247 62.472 234.247 64.274C234.247 66.042 235.284 67.521 237.069 67.504C238.871 67.504 239.857 66.093 239.857 64.274ZM234.247 67.453V72.825H232.309V59.531H234.247V61.112C234.91 59.99 236.015 59.361 237.392 59.361C240.095 59.361 241.88 61.333 241.88 64.257C241.88 67.181 240.129 69.17 237.375 69.17C235.998 69.17 234.91 68.558 234.247 67.453ZM245.134 64.257C245.134 66.11 246.12 67.504 247.922 67.504C249.724 67.504 250.761 66.059 250.761 64.257C250.761 62.489 249.724 61.01 247.922 61.027C246.12 61.027 245.134 62.438 245.134 64.257ZM250.744 61.078V59.531H252.682V69H250.744V67.419C250.081 68.541 248.976 69.17 247.599 69.17C244.896 69.17 243.111 67.198 243.111 64.274C243.111 61.35 244.862 59.361 247.616 59.361C248.993 59.361 250.098 59.973 250.744 61.078ZM257.041 63.968V69H255.103V59.531H257.041V60.959C257.517 59.973 258.265 59.361 259.251 59.361C259.625 59.361 259.897 59.463 260.016 59.599V61.673C259.812 61.52 259.489 61.384 259.013 61.384C257.908 61.384 257.041 62.047 257.041 63.968ZM261.908 66.569V61.095H260.718V59.531H261.908V57.202H263.846V59.531H266.175V61.095H263.846V66.331C263.846 67.13 264.135 67.47 264.934 67.47C265.342 67.47 265.818 67.368 266.192 67.164V68.796C265.699 69.051 265.138 69.17 264.492 69.17C262.792 69.17 261.908 68.303 261.908 66.569ZM267.771 69V59.531H269.709V60.976C270.304 59.922 271.358 59.361 272.633 59.361C274.605 59.361 276.203 60.738 276.203 63.356V69H274.265V63.662C274.265 61.945 273.364 61.044 271.987 61.044C270.61 61.044 269.709 61.945 269.709 63.662V69H267.771ZM282.701 67.521C283.857 67.521 284.826 66.943 285.064 65.753H287.104C286.645 67.81 285.013 69.17 282.701 69.17C280.015 69.17 278.026 67.147 278.026 64.257C278.026 61.35 280.015 59.361 282.803 59.361C285.387 59.361 287.223 61.214 287.223 63.951C287.223 64.206 287.189 64.461 287.155 64.767H280.015C280.185 66.501 281.256 67.521 282.701 67.521ZM282.701 61.01C281.324 61.01 280.321 61.894 280.066 63.458H285.234C285.166 61.945 284.044 61.01 282.701 61.01ZM290.927 63.968V69H288.989V59.531H290.927V60.959C291.403 59.973 292.151 59.361 293.137 59.361C293.511 59.361 293.783 59.463 293.902 59.599V61.673C293.698 61.52 293.375 61.384 292.899 61.384C291.794 61.384 290.927 62.047 290.927 63.968Z" fill="#2C3A42"/>
<path d="M148.996 50V41.289H140.595V50H135.325V28.238H140.595V36.639H148.996V28.238H154.266V50H148.996ZM165.79 45.939C167.03 45.939 168.177 45.381 168.487 43.893H174.067C173.168 47.954 170.099 50.31 165.759 50.31C160.892 50.31 157.048 46.497 157.048 41.32C157.048 36.174 160.892 32.423 165.852 32.423C170.533 32.423 174.315 35.523 174.315 41.134C174.315 41.661 174.284 42.219 174.191 42.808H162.473C162.876 44.73 164.147 45.939 165.79 45.939ZM165.79 36.794C164.24 36.794 163.031 37.848 162.535 39.584H168.921C168.611 37.755 167.185 36.794 165.79 36.794ZM181.289 41.382C181.289 44.017 182.746 45.784 184.885 45.784C187.055 45.784 188.512 44.017 188.512 41.382C188.512 38.716 187.055 36.949 184.854 36.949C182.715 36.949 181.289 38.716 181.289 41.382ZM188.388 34.81V32.733H193.658V50H188.388V47.768C187.303 49.411 185.691 50.31 183.614 50.31C179.212 50.31 175.864 46.559 175.864 41.413C175.864 36.236 179.212 32.423 183.676 32.423C185.753 32.423 187.334 33.229 188.388 34.81ZM196.284 41.32C196.284 36.174 200.128 32.423 205.088 32.423C209.304 32.423 212.621 34.965 213.303 39.181H207.568C207.134 37.755 206.328 36.949 204.902 36.949C203.104 36.949 201.709 38.716 201.709 41.351C201.709 44.017 203.166 45.784 204.964 45.784C206.235 45.784 207.258 45.009 207.568 43.552H213.303C212.404 48.016 209.335 50.31 204.995 50.31C200.128 50.31 196.284 46.497 196.284 41.32ZM220.131 41.382C220.131 44.017 221.588 45.784 223.727 45.784C225.897 45.784 227.354 44.017 227.354 41.382C227.354 38.716 225.897 36.949 223.696 36.949C221.557 36.949 220.131 38.716 220.131 41.382ZM227.23 34.81V32.733H232.5V50H227.23V47.768C226.145 49.411 224.533 50.31 222.456 50.31C218.054 50.31 214.706 46.559 214.706 41.413C214.706 36.236 218.054 32.423 222.518 32.423C224.595 32.423 226.176 33.229 227.23 34.81ZM238.009 50.31C236.397 50.31 235.126 49.039 235.126 47.427C235.126 45.784 236.397 44.513 238.009 44.513C239.652 44.513 240.923 45.784 240.923 47.427C240.923 49.039 239.652 50.31 238.009 50.31ZM247.287 41.382C247.287 44.017 248.744 45.784 250.883 45.784C253.053 45.784 254.51 44.017 254.51 41.382C254.51 38.716 253.053 36.949 250.852 36.949C248.713 36.949 247.287 38.716 247.287 41.382ZM254.386 34.81V26.347H259.656V50H254.386V47.768C253.301 49.411 251.689 50.31 249.612 50.31C245.21 50.31 241.862 46.559 241.862 41.413C241.862 36.236 245.21 32.423 249.674 32.423C251.751 32.423 253.332 33.229 254.386 34.81ZM263.367 50V26.347H268.637V50H263.367ZM268.761 41.227L273.969 32.733H280.014L274.496 40.917L280.231 50H274.093L268.761 41.227Z" fill="#2C3A42"/>
<path d="M143.384 69V63.73H137.502V69H135.564V57.066H137.502V62.047H143.384V57.066H145.322V69H143.384ZM152 67.521C153.156 67.521 154.125 66.943 154.363 65.753H156.403C155.944 67.81 154.312 69.17 152 69.17C149.314 69.17 147.325 67.147 147.325 64.257C147.325 61.35 149.314 59.361 152.102 59.361C154.686 59.361 156.522 61.214 156.522 63.951C156.522 64.206 156.488 64.461 156.454 64.767H149.314C149.484 66.501 150.555 67.521 152 67.521ZM152 61.01C150.623 61.01 149.62 61.894 149.365 63.458H154.533C154.465 61.945 153.343 61.01 152 61.01ZM159.716 64.257C159.716 66.11 160.702 67.504 162.504 67.504C164.306 67.504 165.343 66.059 165.343 64.257C165.343 62.489 164.306 61.01 162.504 61.027C160.702 61.027 159.716 62.438 159.716 64.257ZM165.326 61.078V59.531H167.264V69H165.326V67.419C164.663 68.541 163.558 69.17 162.181 69.17C159.478 69.17 157.693 67.198 157.693 64.274C157.693 61.35 159.444 59.361 162.198 59.361C163.575 59.361 164.68 59.973 165.326 61.078ZM169.685 69V56.029H171.64V69H169.685ZM174.315 66.569V61.095H173.125V59.531H174.315V57.202H176.253V59.531H178.582V61.095H176.253V66.331C176.253 67.13 176.542 67.47 177.341 67.47C177.749 67.47 178.225 67.368 178.599 67.164V68.796C178.106 69.051 177.545 69.17 176.899 69.17C175.199 69.17 174.315 68.303 174.315 66.569ZM180.178 69V56.029H182.116V60.976C182.694 59.922 183.748 59.361 184.989 59.361C186.927 59.361 188.508 60.738 188.508 63.356V69H186.57V63.662C186.57 61.945 185.703 61.044 184.343 61.044C183 61.044 182.116 61.945 182.116 63.662V69H180.178ZM190.333 64.308C190.333 61.452 192.22 59.361 195.042 59.361C197.252 59.361 198.935 60.687 199.275 62.914H197.184C196.963 61.741 196.13 61.061 194.974 61.061C193.427 61.061 192.356 62.268 192.356 64.308C192.356 66.365 193.427 67.47 194.94 67.47C196.011 67.47 196.98 66.756 197.184 65.617H199.275C198.816 67.725 197.201 69.17 194.906 69.17C192.22 69.17 190.333 67.181 190.333 64.308ZM202.392 64.257C202.392 66.11 203.378 67.504 205.18 67.504C206.982 67.504 208.019 66.059 208.019 64.257C208.019 62.489 206.982 61.01 205.18 61.027C203.378 61.027 202.392 62.438 202.392 64.257ZM208.002 61.078V59.531H209.94V69H208.002V67.419C207.339 68.541 206.234 69.17 204.857 69.17C202.154 69.17 200.369 67.198 200.369 64.274C200.369 61.35 202.12 59.361 204.874 59.361C206.251 59.361 207.356 59.973 208.002 61.078ZM214.299 63.968V69H212.361V59.531H214.299V60.959C214.775 59.973 215.523 59.361 216.509 59.361C216.883 59.361 217.155 59.463 217.274 59.599V61.673C217.07 61.52 216.747 61.384 216.271 61.384C215.166 61.384 214.299 62.047 214.299 63.968ZM222.642 67.521C223.798 67.521 224.767 66.943 225.005 65.753H227.045C226.586 67.81 224.954 69.17 222.642 69.17C219.956 69.17 217.967 67.147 217.967 64.257C217.967 61.35 219.956 59.361 222.744 59.361C225.328 59.361 227.164 61.214 227.164 63.951C227.164 64.206 227.13 64.461 227.096 64.767H219.956C220.126 66.501 221.197 67.521 222.642 67.521ZM222.642 61.01C221.265 61.01 220.262 61.894 220.007 63.458H225.175C225.107 61.945 223.985 61.01 222.642 61.01ZM239.857 64.274C239.857 62.421 238.871 61.027 237.069 61.027C235.284 61.027 234.247 62.472 234.247 64.274C234.247 66.042 235.284 67.521 237.069 67.504C238.871 67.504 239.857 66.093 239.857 64.274ZM234.247 67.453V72.825H232.309V59.531H234.247V61.112C234.91 59.99 236.015 59.361 237.392 59.361C240.095 59.361 241.88 61.333 241.88 64.257C241.88 67.181 240.129 69.17 237.375 69.17C235.998 69.17 234.91 68.558 234.247 67.453ZM245.134 64.257C245.134 66.11 246.12 67.504 247.922 67.504C249.724 67.504 250.761 66.059 250.761 64.257C250.761 62.489 249.724 61.01 247.922 61.027C246.12 61.027 245.134 62.438 245.134 64.257ZM250.744 61.078V59.531H252.682V69H250.744V67.419C250.081 68.541 248.976 69.17 247.599 69.17C244.896 69.17 243.111 67.198 243.111 64.274C243.111 61.35 244.862 59.361 247.616 59.361C248.993 59.361 250.098 59.973 250.744 61.078ZM257.041 63.968V69H255.103V59.531H257.041V60.959C257.517 59.973 258.265 59.361 259.251 59.361C259.625 59.361 259.897 59.463 260.016 59.599V61.673C259.812 61.52 259.489 61.384 259.013 61.384C257.908 61.384 257.041 62.047 257.041 63.968ZM261.908 66.569V61.095H260.718V59.531H261.908V57.202H263.846V59.531H266.175V61.095H263.846V66.331C263.846 67.13 264.135 67.47 264.934 67.47C265.342 67.47 265.818 67.368 266.192 67.164V68.796C265.699 69.051 265.138 69.17 264.492 69.17C262.792 69.17 261.908 68.303 261.908 66.569ZM267.771 69V59.531H269.709V60.976C270.304 59.922 271.358 59.361 272.633 59.361C274.605 59.361 276.203 60.738 276.203 63.356V69H274.265V63.662C274.265 61.945 273.364 61.044 271.987 61.044C270.61 61.044 269.709 61.945 269.709 63.662V69H267.771ZM282.701 67.521C283.857 67.521 284.826 66.943 285.064 65.753H287.104C286.645 67.81 285.013 69.17 282.701 69.17C280.015 69.17 278.026 67.147 278.026 64.257C278.026 61.35 280.015 59.361 282.803 59.361C285.387 59.361 287.223 61.214 287.223 63.951C287.223 64.206 287.189 64.461 287.155 64.767H280.015C280.185 66.501 281.256 67.521 282.701 67.521ZM282.701 61.01C281.324 61.01 280.321 61.894 280.066 63.458H285.234C285.166 61.945 284.044 61.01 282.701 61.01ZM290.927 63.968V69H288.989V59.531H290.927V60.959C291.403 59.973 292.151 59.361 293.137 59.361C293.511 59.361 293.783 59.463 293.902 59.599V61.673C293.698 61.52 293.375 61.384 292.899 61.384C291.794 61.384 290.927 62.047 290.927 63.968Z" fill="#2C3A42"/>
<path d="M39 8C39 3.58172 42.5817 0 47 0H69C73.4183 0 77 3.58172 77 8V59C77 63.4183 73.4183 67 69 67H47C42.5817 67 39 63.4183 39 59V8Z" fill="#DF2020"/>
<path d="M0 37C0 32.5817 3.58172 29 8 29H19C23.4183 29 27 32.5817 27 37V59C27 63.4183 23.4183 67 19 67H8C3.58172 67 0 63.4183 0 59V37Z" fill="#DF2020" fill-opacity="0.9"/>
<path d="M39 67H77V99C77 103.418 73.4183 107 69 107H47C42.5817 107 39 103.418 39 99V67Z" fill="#F39292" fill-opacity="0.8"/>
<path d="M108 29C112.418 29 116 32.5817 116 37L116 59C116 63.4183 112.418 67 108 67L57 67C52.5817 67 49 63.4183 49 59L49 37C49 32.5817 52.5817 29 57 29L108 29Z" fill="#F39292" fill-opacity="0.8"/>
<path d="M39 37C39 32.5817 42.5817 29 47 29H77V59C77 63.4183 73.4183 67 69 67H39V37Z" fill="#F36061"/>
</svg>
