<svg width="116" height="107" viewBox="0 0 116 107" fill="none" xmlns="http://www.w3.org/2000/svg">
<path d="M39 8C39 3.58172 42.5817 0 47 0H69C73.4183 0 77 3.58172 77 8V59C77 63.4183 73.4183 67 69 67H47C42.5817 67 39 63.4183 39 59V8Z" fill="#DF2020"/>
<path d="M0 37C0 32.5817 3.58172 29 8 29H19C23.4183 29 27 32.5817 27 37V59C27 63.4183 23.4183 67 19 67H8C3.58172 67 0 63.4183 0 59V37Z" fill="#DF2020" fill-opacity="0.9"/>
<path d="M39 67H77V99C77 103.418 73.4183 107 69 107H47C42.5817 107 39 103.418 39 99V67Z" fill="#F39292" fill-opacity="0.8"/>
<path d="M108 29C112.418 29 116 32.5817 116 37L116 59C116 63.4183 112.418 67 108 67L57 67C52.5817 67 49 63.4183 49 59L49 37C49 32.5817 52.5817 29 57 29L108 29Z" fill="#F39292" fill-opacity="0.8"/>
<path d="M39 37C39 32.5817 42.5817 29 47 29H77V59C77 63.4183 73.4183 67 69 67H39V37Z" fill="#F36061"/>
</svg>
